<?xml version="1.0" encoding="UTF-8"?>
<!DOCTYPE svg PUBLIC "-//W3C//DTD SVG 1.1//EN" "http://www.w3.org/Graphics/SVG/1.1/DTD/svg11.dtd">
<!-- Creator: CorelDRAW X7 -->
<svg xmlns="http://www.w3.org/2000/svg" xml:space="preserve" width="79.0222mm" height="79.0222mm" version="1.1" style="shape-rendering:geometricPrecision; text-rendering:geometricPrecision; image-rendering:optimizeQuality; fill-rule:evenodd; clip-rule:evenodd"
viewBox="0 0 2834 2834"
 xmlns:xlink="http://www.w3.org/1999/xlink">
 <defs>
  <style type="text/css">
   <![CDATA[
    .fil0 {fill:#FEFEFE}
    .fil1 {fill:#333333}
    .fil2 {fill:#CC9966}
   ]]>
  </style>
 </defs>
 <g id="Layer_x0020_1">
  <metadata id="CorelCorpID_0Corel-Layer"/>
  <g id="_2086045502160">
   <circle class="fil0" cx="1417" cy="1417" r="1417"/>
   <g>
    <path class="fil1" d="M2105 915c119,0 226,45 320,133 93,95 140,206 140,333 0,119 -45,226 -133,321 -95,92 -206,139 -333,139 -119,0 -226,-44 -321,-133 -92,-95 -139,-206 -139,-333 0,-119 44,-226 133,-320 95,-93 206,-140 333,-140zm-1249 -106l0 -10c0,-115 60,-190 178,-223 19,-2 34,-3 46,-3 89,0 155,47 200,142 9,25 13,52 13,83l0 1 0 10 0 1216c0,204 94,355 285,443 58,27 120,36 181,36 111,0 213,-40 307,-120 49,-48 81,-90 97,-126 -24,-12 -96,-51 -213,-117l-3 0c-42,80 -108,120 -198,120 -89,0 -158,-46 -200,-142 -11,-25 -13,-53 -13,-84l0 -1226 0 -10 0 -1c0,-31 4,-58 13,-83 44,-95 111,-142 200,-142 12,0 27,1 46,3 118,33 177,108 177,223l0 10 243 0c0,-145 -51,-265 -152,-359 -94,-80 -196,-120 -307,-120 -62,0 -123,9 -181,36 -65,29 -118,67 -161,111 -42,-44 -95,-82 -160,-111 -58,-27 -119,-36 -181,-36 -111,0 -213,40 -307,120 -102,94 -152,214 -152,359l242 0zm1026 572c0,85 43,149 129,194 25,13 56,20 94,20 84,0 149,-43 194,-129 13,-25 20,-57 20,-94 0,-84 -43,-149 -130,-194 -25,-13 -56,-20 -94,-20 -84,0 -148,43 -194,130 -13,24 -19,56 -19,93z"/>
    <path class="fil2" d="M735 915c119,0 225,45 320,133 93,95 140,206 140,333 0,119 -45,226 -133,321 -95,92 -206,139 -333,139 -119,0 -226,-44 -321,-133 -92,-95 -139,-206 -139,-333 0,-119 44,-226 133,-320 95,-93 206,-140 333,-140zm-223 466c0,85 43,149 129,194 25,13 56,20 94,20 84,0 149,-43 194,-129 13,-25 20,-57 20,-94 0,-84 -43,-149 -130,-194 -25,-13 -56,-20 -94,-20 -84,0 -149,43 -194,130 -13,24 -19,56 -19,93z"/>
   </g>
  </g>
 </g>
</svg>
